REM DIRINDEX 1\2,1\3
REM DIRNAME folder01,folder02,folder03
TITLE ""
FILE "44.mp3" MP3
  TRACK 01 AUDIO
    TITLE "0:"
    INDEX 01 00:00:00
  TRACK 02 AUDIO
    TITLE "3:cjc132_0845"
    INDEX 01 00:00:15
  TRACK 03 AUDIO
    TITLE "0:"
    INDEX 01 00:01:40
  TRACK 04 AUDIO
    TITLE "2:cjc132_0846"
    INDEX 01 00:02:14
  TRACK 05 AUDIO
    TITLE "0:"
    INDEX 01 00:03:12
  TRACK 06 AUDIO
    TITLE "2:cjc132_0847"
    INDEX 01 00:03:68
  TRACK 07 AUDIO
    TITLE "0:"
    INDEX 01 00:04:68
  TRACK 08 AUDIO
    TITLE "2:cjc132_0848"
    INDEX 01 00:05:42
  TRACK 09 AUDIO
    TITLE "0:"
    INDEX 01 00:06:53
  TRACK 10 AUDIO
    TITLE "2:cjc132_0849"
    INDEX 01 00:07:27
  TRACK 11 AUDIO
    TITLE "0:"
    INDEX 01 00:10:41
  TRACK 12 AUDIO
    TITLE "2:cjc132_0850"
    INDEX 01 00:11:15
  TRACK 13 AUDIO
    TITLE "0:"
    INDEX 01 00:12:26
  TRACK 14 AUDIO
    TITLE "2:cjc132_0851"
    INDEX 01 00:13:00
  TRACK 15 AUDIO
    TITLE "0:"
    INDEX 01 00:14:04
  TRACK 16 AUDIO
    TITLE "2:cjc132_0852"
    INDEX 01 00:15:15
  TRACK 17 AUDIO
    TITLE "0:"
    INDEX 01 00:16:48
  TRACK 18 AUDIO
    TITLE "2:cjc132_0853"
    INDEX 01 00:18:27
  TRACK 19 AUDIO
    TITLE "0:"
    INDEX 01 00:20:10
  TRACK 20 AUDIO
    TITLE "2:cjc132_0854"
    INDEX 01 00:22:11
  TRACK 21 AUDIO
    TITLE "0:"
    INDEX 01 00:23:51
  TRACK 22 AUDIO
    TITLE "2:cjc132_0855"
    INDEX 01 00:25:33
  TRACK 23 AUDIO
    TITLE "0:"
    INDEX 01 00:26:67
  TRACK 24 AUDIO
    TITLE "2:cjc132_0856"
    INDEX 01 00:28:45
  TRACK 25 AUDIO
    TITLE "0:"
    INDEX 01 00:30:12
  TRACK 26 AUDIO
    TITLE "2:cjc132_0857"
    INDEX 01 00:32:01
  TRACK 27 AUDIO
    TITLE "0:"
    INDEX 01 00:33:32
  TRACK 28 AUDIO
    TITLE "2:cjc132_0858"
    INDEX 01 00:35:10
  TRACK 29 AUDIO
    TITLE "0:"
    INDEX 01 00:37:14
  TRACK 30 AUDIO
    TITLE "2:cjc132_0859"
    INDEX 01 00:39:41
  TRACK 31 AUDIO
    TITLE "0:"
    INDEX 01 00:40:72
  TRACK 32 AUDIO
    TITLE "2:cjc132_0860"
    INDEX 01 00:42:51
  TRACK 33 AUDIO
    TITLE "0:"
    INDEX 01 00:44:07
  TRACK 34 AUDIO
    TITLE "2:cjc132_0861"
    INDEX 01 00:45:63
  TRACK 35 AUDIO
    TITLE "0:"
    INDEX 01 00:47:28
  TRACK 36 AUDIO
    TITLE "2:cjc132_0862"
    INDEX 01 00:49:12
  TRACK 37 AUDIO
    TITLE "0:"
    INDEX 01 00:50:48
  TRACK 38 AUDIO
    TITLE "2:cjc132_0863"
    INDEX 01 00:52:30
  TRACK 39 AUDIO
    TITLE "0:"
    INDEX 01 00:53:60
  TRACK 40 AUDIO
    TITLE "2:cjc132_0864"
    INDEX 01 00:55:36
  TRACK 41 AUDIO
    TITLE "0:"
    INDEX 01 00:57:03
  TRACK 42 AUDIO
    TITLE "2:cjc132_0865"
    INDEX 01 00:58:67
  TRACK 43 AUDIO
    TITLE "0:"
    INDEX 01 01:00:31
  TRACK 44 AUDIO
    TITLE "2:cjc132_0866"
    INDEX 01 01:02:14
  TRACK 45 AUDIO
    TITLE "0:"
    INDEX 01 01:03:61
  TRACK 46 AUDIO
    TITLE "2:cjc132_0867"
    INDEX 01 01:05:56
  TRACK 47 AUDIO
    TITLE "0:"
    INDEX 01 01:07:45
  TRACK 48 AUDIO
    TITLE "2:cjc132_0868"
    INDEX 01 01:09:52
  TRACK 49 AUDIO
    TITLE "0:"
    INDEX 01 01:11:19
  TRACK 50 AUDIO
    TITLE "2:cjc132_0869"
    INDEX 01 01:13:08
  TRACK 51 AUDIO
    TITLE "0:"
    INDEX 01 01:14:57
  TRACK 52 AUDIO
    TITLE "2:cjc132_0870"
    INDEX 01 01:16:56
  TRACK 53 AUDIO
    TITLE "0:"
    INDEX 01 01:18:15
  TRACK 54 AUDIO
    TITLE "2:cjc132_0871"
    INDEX 01 01:20:00
  TRACK 55 AUDIO
    TITLE "0:"
    INDEX 01 01:21:74
  TRACK 56 AUDIO
    TITLE "2:cjc132_0872"
    INDEX 01 01:24:20
  TRACK 57 AUDIO
    TITLE "0:"
    INDEX 01 01:26:17
  TRACK 58 AUDIO
    TITLE "2:cjc132_0873"
    INDEX 01 01:28:33
  TRACK 59 AUDIO
    TITLE "0:"
    INDEX 01 01:30:46
  TRACK 60 AUDIO
    TITLE "2:cjc132_0874"
    INDEX 01 01:32:74
  TRACK 61 AUDIO
    TITLE "0:"
    INDEX 01 01:34:61
  TRACK 62 AUDIO
    TITLE "2:cjc132_0875"
    INDEX 01 01:36:62
  TRACK 63 AUDIO
    TITLE "0:"
    INDEX 01 01:38:16
  TRACK 64 AUDIO
    TITLE "2:cjc132_0876"
    INDEX 01 01:39:64
  TRACK 65 AUDIO
    TITLE "0:"
    INDEX 01 01:41:59
  TRACK 66 AUDIO
    TITLE "2:cjc132_0877"
    INDEX 01 01:44:01
  TRACK 67 AUDIO
    TITLE "0:"
    INDEX 01 01:45:65
  TRACK 68 AUDIO
    TITLE "2:cjc132_0878"
    INDEX 01 01:48:03
  TRACK 69 AUDIO
    TITLE "0:"
    INDEX 01 01:49:73
